<svg width="1000" height="1001" viewBox="0 0 1000 1001" fill="none" xmlns="http://www.w3.org/2000/svg">
<path d="M1000 0H0V1000.49H1000V0Z" fill="#2F854C"/>
<path d="M604.778 792.525V579.431H722.844V804.241C722.844 820.191 726.489 831.55 733.795 838.317C741.135 845.097 750.942 848.479 763.194 848.479C775.474 848.479 785.36 845.097 792.847 838.317C800.33 831.55 804.123 820.191 804.123 804.241V579.431H921.629V792.525C921.629 817.957 917.803 839.56 910.139 857.376C902.499 875.19 891.737 889.658 877.964 900.873C864.154 912.088 847.451 920.217 827.868 925.264C808.273 930.382 786.704 932.916 763.197 932.916C740.039 932.916 718.733 930.382 699.316 925.264C679.911 920.22 663.196 912.088 649.245 900.873C635.257 889.658 624.339 875.19 616.531 857.376C608.677 839.56 604.778 817.957 604.778 792.525ZM396.25 845.932C396.25 848.289 397.41 849.483 399.813 849.483C401.487 849.483 402.36 848.286 402.36 845.932C405.421 823.54 409.341 799.066 414.113 772.437C418.906 745.823 423.629 719.877 428.425 694.602C433.197 669.375 437.797 646.382 442.211 625.734C446.646 605.013 450.053 589.626 452.458 579.428H562.848V923.765H496.42V633.864C496.42 632.153 495.202 631.317 492.833 631.317C491.483 631.317 490.788 632.153 490.788 633.864C488.074 647.398 485.157 662.583 482.108 679.38C479.011 696.153 475.283 715.81 470.832 738.361C466.409 760.922 461.053 787.285 454.763 817.439C448.461 847.64 441.039 883.056 432.524 923.765H363.5C355 883.748 347.753 849.158 341.787 819.986C335.797 790.847 330.609 765.262 326.183 743.191C321.773 721.169 317.837 701.5 314.43 684.201C311.048 666.914 307.626 650.125 304.207 633.867C304.207 632.156 303.01 631.32 300.62 631.32C299.279 631.32 298.587 632.156 298.587 633.867V923.768H237.779V579.431H348.671C350.382 586.881 352.448 596.528 354.817 608.425C357.174 620.323 359.852 633.594 362.72 648.359C365.637 663.066 368.59 678.872 371.688 695.612C374.736 712.446 377.809 729.543 380.882 747.023C383.955 764.479 386.753 781.613 389.324 798.411C391.877 815.168 394.184 831.023 396.25 845.932ZM71.1628 579.431H104.893V898.336H203.018V923.768H71.1628V579.431Z" fill="white"/>
</svg>
