<svg width="1000" height="1000" viewBox="0 0 1000 1000" fill="none" xmlns="http://www.w3.org/2000/svg">
<g clip-path="url(#clip0_702_11324)">
<g clip-path="url(#clip1_702_11324)">
<path d="M782.407 0H217.593C97.4195 0 0 97.4195 0 217.593V782.407C0 902.58 97.4195 1000 217.593 1000H782.407C902.58 1000 1000 902.58 1000 782.407V217.593C1000 97.4195 902.58 0 782.407 0Z" fill="#F9F9F8"/>
<path fill-rule="evenodd" clip-rule="evenodd" d="M500.471 756.908C497.514 756.908 494.556 756.641 491.708 756.107C485.233 754.894 479.619 751.655 468.389 745.178L290.797 642.732C284.702 637.413 280.196 628.428 280.196 620.829V483.253L294.603 474.941L500.471 593.699V756.908ZM667.334 667.428L532.553 745.178C521.323 751.655 515.708 754.894 509.233 756.107C506.386 756.641 503.43 756.908 500.472 756.908V594.654L704.147 477.163V549.291L704.144 549.29V549.288L704.143 549.289L641.643 513.235L604.832 534.469L667.334 570.524V667.428ZM704.144 646.193V748.961L667.334 770.195V667.428L704.144 646.193ZM704.147 549.296L704.151 549.293L704.147 549.291V549.296ZM704.147 549.296V646.191L704.144 646.193V549.298L704.147 549.296ZM704.144 549.298V549.29L704.143 549.289L667.334 570.522V570.524L667.341 570.528L704.144 549.298Z" fill="url(#paint0_linear_702_11324)"/>
<g filter="url(#filter0_ii_702_11324)">
<path fill-rule="evenodd" clip-rule="evenodd" d="M181.676 443.6C162.673 454.563 162.673 472.336 181.676 483.298L466.065 647.35C485.068 658.312 515.878 658.312 534.881 647.35L667.343 570.937L494.274 471.101L531.083 449.867L704.153 549.703L819.27 483.298C838.273 472.336 838.273 454.563 819.27 443.6L534.881 279.548C515.878 268.586 485.068 268.586 466.065 279.548L181.676 443.6Z" fill="url(#paint1_linear_702_11324)"/>
<path fill-rule="evenodd" clip-rule="evenodd" d="M181.676 443.6C162.673 454.563 162.673 472.336 181.676 483.298L466.065 647.35C485.068 658.312 515.878 658.312 534.881 647.35L667.343 570.937L494.274 471.101L531.083 449.867L704.153 549.703L819.27 483.298C838.273 472.336 838.273 454.563 819.27 443.6L534.881 279.548C515.878 268.586 485.068 268.586 466.065 279.548L181.676 443.6Z" fill="url(#paint2_radial_702_11324)" fill-opacity="0.3"/>
</g>
<mask id="mask0_702_11324" style="mask-type:luminance" maskUnits="userSpaceOnUse" x="167" y="271" width="667" height="385">
<path fill-rule="evenodd" clip-rule="evenodd" d="M181.676 443.6C162.673 454.563 162.673 472.336 181.676 483.298L466.065 647.35C485.068 658.312 515.878 658.312 534.881 647.35L667.343 570.937L494.274 471.101L531.083 449.867L704.153 549.703L819.27 483.298C838.273 472.336 838.273 454.563 819.27 443.6L534.881 279.548C515.878 268.586 485.068 268.586 466.065 279.548L181.676 443.6Z" fill="white"/>
</mask>
<g mask="url(#mask0_702_11324)">
<path d="M667.343 570.936L669.656 574.946L676.608 570.936L669.656 566.926L667.343 570.936ZM494.274 471.1L491.96 467.09L485.009 471.1L491.96 475.11L494.274 471.1ZM531.084 449.866L533.397 445.855L531.084 444.521L528.771 445.855L531.084 449.866ZM704.153 549.702L701.839 553.712L704.153 555.047L706.466 553.712L704.153 549.702ZM183.989 479.286C175.331 474.291 172.053 468.393 172.053 463.447C172.053 458.503 175.331 452.605 183.989 447.609L179.362 439.589C169.019 445.555 162.794 454.025 162.794 463.447C162.794 472.87 169.019 481.339 179.362 487.306L183.989 479.286ZM468.379 643.338L183.989 479.286L179.362 487.306L463.752 651.358L468.379 643.338ZM532.568 643.338C523.935 648.318 512.33 650.941 500.473 650.941C488.617 650.941 477.011 648.318 468.379 643.338L463.752 651.358C474.122 657.341 487.423 660.2 500.473 660.2C513.523 660.2 526.823 657.341 537.195 651.358L532.568 643.338ZM665.03 566.926L532.568 643.338L537.195 651.358L669.656 574.946L665.03 566.926ZM669.656 566.926L496.587 467.09L491.96 475.11L665.03 574.946L669.656 566.926ZM496.587 475.11L533.397 453.876L528.771 445.855L491.96 467.09L496.587 475.11ZM528.771 453.876L701.839 553.712L706.466 545.692L533.397 445.855L528.771 453.876ZM816.957 479.286L701.839 545.692L706.466 553.712L821.583 487.306L816.957 479.286ZM816.957 447.609C825.616 452.605 828.893 458.503 828.893 463.447C828.893 468.393 825.616 474.291 816.957 479.286L821.583 487.306C831.928 481.339 838.152 472.87 838.152 463.447C838.152 454.025 831.928 445.555 821.583 439.589L816.957 447.609ZM532.568 283.556L816.957 447.609L821.583 439.589L537.195 275.536L532.568 283.556ZM468.379 283.556C477.011 278.577 488.617 275.955 500.473 275.955C512.33 275.955 523.935 278.577 532.568 283.556L537.195 275.536C526.823 269.554 513.523 266.695 500.473 266.695C487.423 266.695 474.122 269.554 463.752 275.536L468.379 283.556ZM183.989 447.609L468.379 283.556L463.752 275.536L179.362 439.589L183.989 447.609Z" fill="url(#paint3_radial_702_11324)" fill-opacity="0.7"/>
</g>
<path d="M687.159 709.71L684.325 711.344C670.292 719.44 658.916 739.135 658.916 755.336C658.916 771.537 670.292 778.107 684.325 770.012L687.159 768.378C701.192 760.282 712.568 740.587 712.568 724.386C712.568 708.185 701.192 701.614 687.159 709.71Z" fill="#0C0C0D"/>
</g>
</g>
<defs>
<filter id="filter0_ii_702_11324" x="167.424" y="246.882" width="666.099" height="408.689" filterUnits="userSpaceOnUse" color-interpolation-filters="sRGB">
<feFlood flood-opacity="0" result="BackgroundImageFix"/>
<feBlend mode="normal" in="SourceGraphic" in2="BackgroundImageFix" result="shape"/>
<feColorMatrix in="SourceAlpha" type="matrix" values="0 0 0 0 0 0 0 0 0 0 0 0 0 0 0 0 0 0 127 0" result="hardAlpha"/>
<feOffset dy="-24.4444"/>
<feGaussianBlur stdDeviation="24.4444"/>
<feComposite in2="hardAlpha" operator="arithmetic" k2="-1" k3="1"/>
<feColorMatrix type="matrix" values="0 0 0 0 1 0 0 0 0 1 0 0 0 0 1 0 0 0 0.12 0"/>
<feBlend mode="normal" in2="shape" result="effect1_innerShadow_702_11324"/>
<feColorMatrix in="SourceAlpha" type="matrix" values="0 0 0 0 0 0 0 0 0 0 0 0 0 0 0 0 0 0 127 0" result="hardAlpha"/>
<feOffset dy="-8.14815"/>
<feGaussianBlur stdDeviation="8.14815"/>
<feComposite in2="hardAlpha" operator="arithmetic" k2="-1" k3="1"/>
<feColorMatrix type="matrix" values="0 0 0 0 1 0 0 0 0 1 0 0 0 0 1 0 0 0 0.12 0"/>
<feBlend mode="normal" in2="effect1_innerShadow_702_11324" result="effect2_innerShadow_702_11324"/>
</filter>
<linearGradient id="paint0_linear_702_11324" x1="480.799" y1="476.147" x2="480.799" y2="686.081" gradientUnits="userSpaceOnUse">
<stop stop-color="#242526"/>
<stop offset="1" stop-color="#0B0C0D"/>
</linearGradient>
<linearGradient id="paint1_linear_702_11324" x1="500.473" y1="271.326" x2="500.473" y2="655.572" gradientUnits="userSpaceOnUse">
<stop stop-color="#303133"/>
<stop offset="1" stop-color="#0B0C0D"/>
</linearGradient>
<radialGradient id="paint2_radial_702_11324" cx="0" cy="0" r="1" gradientUnits="userSpaceOnUse" gradientTransform="translate(500.474 271.737) rotate(90) scale(492.03 702.282)">
<stop offset="0.208662" stop-color="white" stop-opacity="0.1"/>
<stop offset="1" stop-opacity="0.2"/>
</radialGradient>
<radialGradient id="paint3_radial_702_11324" cx="0" cy="0" r="1" gradientUnits="userSpaceOnUse" gradientTransform="translate(500.473 271.325) rotate(90) scale(477.012 1857.58)">
<stop stop-opacity="0"/>
<stop offset="1" stop-color="white"/>
</radialGradient>
<clipPath id="clip0_702_11324">
<rect width="1000" height="1000" fill="white"/>
</clipPath>
<clipPath id="clip1_702_11324">
<rect width="1000" height="1000" fill="white"/>
</clipPath>
</defs>
</svg>
