<svg width="1080" height="1080" viewBox="0 0 1080 1080" fill="none" xmlns="http://www.w3.org/2000/svg">
<rect width="1080" height="1080" rx="235" fill="white"/>
<path fill-rule="evenodd" clip-rule="evenodd" d="M540.509 817.462C537.315 817.462 534.12 817.174 531.045 816.597C524.052 815.287 517.988 811.789 505.86 804.793L314.061 694.152C307.478 688.407 302.612 678.704 302.612 670.497V521.914L318.171 512.938L540.509 641.196V817.462ZM720.721 720.823L575.157 804.793C563.029 811.789 556.965 815.287 549.972 816.597C546.897 817.174 543.704 817.462 540.51 817.462V642.228L760.479 515.337V593.236L760.476 593.234V593.232L760.474 593.233L692.974 554.295L653.219 577.228L720.721 616.167V720.823ZM760.476 697.89V808.879L720.721 831.812V720.823L760.476 697.89ZM760.479 593.241L760.483 593.238L760.479 593.236V593.241ZM760.479 593.241V697.888L760.476 697.89V593.243L760.479 593.241ZM760.476 593.243V593.234L760.474 593.233L720.721 616.165V616.167L720.728 616.171L760.476 593.243Z" fill="url(#paint0_linear_1238_8918)"/>
<mask id="path-3-inside-1_1238_8918" fill="white">
<path fill-rule="evenodd" clip-rule="evenodd" d="M196.21 479.088C175.687 490.927 175.687 510.122 196.21 521.961L503.35 699.137C523.873 710.976 557.148 710.976 577.671 699.137L720.73 616.612L533.816 508.789L573.57 485.856L760.485 593.679L884.812 521.961C905.335 510.122 905.335 490.927 884.812 479.088L577.671 301.911C557.148 290.072 523.873 290.072 503.35 301.911L196.21 479.088Z"/>
</mask>
<g filter="url(#filter0_ii_1238_8918)">
<path fill-rule="evenodd" clip-rule="evenodd" d="M196.21 479.088C175.687 490.927 175.687 510.122 196.21 521.961L503.35 699.137C523.873 710.976 557.148 710.976 577.671 699.137L720.73 616.612L533.816 508.789L573.57 485.856L760.485 593.679L884.812 521.961C905.335 510.122 905.335 490.927 884.812 479.088L577.671 301.911C557.148 290.072 523.873 290.072 503.35 301.911L196.21 479.088Z" fill="url(#paint1_linear_1238_8918)"/>
<path fill-rule="evenodd" clip-rule="evenodd" d="M196.21 479.088C175.687 490.927 175.687 510.122 196.21 521.961L503.35 699.137C523.873 710.976 557.148 710.976 577.671 699.137L720.73 616.612L533.816 508.789L573.57 485.856L760.485 593.679L884.812 521.961C905.335 510.122 905.335 490.927 884.812 479.088L577.671 301.911C557.148 290.072 523.873 290.072 503.35 301.911L196.21 479.088Z" fill="url(#paint2_radial_1238_8918)" fill-opacity="0.3"/>
</g>
<path d="M196.21 521.961L193.711 526.292H193.711L196.21 521.961ZM196.21 479.088L198.708 483.419H198.708L196.21 479.088ZM503.35 699.137L500.852 703.468L503.35 699.137ZM577.671 699.137L580.17 703.468L580.17 703.468L577.671 699.137ZM720.73 616.612L723.228 620.943L730.736 616.612L723.228 612.281L720.73 616.612ZM533.816 508.789L531.317 504.458L523.809 508.789L531.317 513.12L533.816 508.789ZM573.57 485.856L576.069 481.525L573.57 480.084L571.072 481.525L573.57 485.856ZM760.485 593.679L757.986 598.01L760.485 599.452L762.983 598.01L760.485 593.679ZM884.812 521.961L887.31 526.292V526.292L884.812 521.961ZM884.812 479.088L882.313 483.419L884.812 479.088ZM577.671 301.911L580.17 297.58V297.58L577.671 301.911ZM503.35 301.911L505.849 306.242V306.242L503.35 301.911ZM198.708 517.63C189.357 512.235 185.817 505.865 185.817 500.524C185.817 495.184 189.357 488.814 198.708 483.419L193.711 474.757C182.54 481.201 175.817 490.348 175.817 500.524C175.817 510.701 182.54 519.847 193.711 526.292L198.708 517.63ZM505.849 694.806L198.708 517.63L193.711 526.292L500.852 703.468L505.849 694.806ZM575.173 694.806C565.85 700.184 553.316 703.017 540.511 703.017C527.706 703.017 515.172 700.184 505.849 694.806L500.852 703.468C512.052 709.929 526.417 713.017 540.511 713.017C554.605 713.017 568.969 709.929 580.17 703.468L575.173 694.806ZM718.232 612.281L575.173 694.806L580.17 703.468L723.228 620.943L718.232 612.281ZM723.228 612.281L536.314 504.458L531.317 513.12L718.232 620.943L723.228 612.281ZM536.314 513.12L576.069 490.187L571.072 481.525L531.317 504.458L536.314 513.12ZM571.072 490.187L757.986 598.01L762.983 589.348L576.069 481.525L571.072 490.187ZM882.313 517.63L757.986 589.348L762.983 598.01L887.31 526.292L882.313 517.63ZM882.313 483.419C891.665 488.814 895.204 495.184 895.204 500.524C895.204 505.865 891.665 512.235 882.313 517.63L887.31 526.292C898.482 519.847 905.204 510.701 905.204 500.524C905.204 490.348 898.482 481.201 887.31 474.757L882.313 483.419ZM575.173 306.242L882.313 483.419L887.31 474.757L580.17 297.58L575.173 306.242ZM505.849 306.242C515.172 300.864 527.706 298.032 540.511 298.032C553.316 298.032 565.85 300.864 575.173 306.242L580.17 297.58C568.969 291.119 554.605 288.032 540.511 288.032C526.417 288.032 512.052 291.119 500.852 297.58L505.849 306.242ZM198.708 483.419L505.849 306.242L500.852 297.58L193.711 474.757L198.708 483.419Z" fill="url(#paint3_radial_1238_8918)" fill-opacity="0.7" mask="url(#path-3-inside-1_1238_8918)"/>
<rect width="66.8946" height="63.3614" rx="31.6807" transform="matrix(0.86621 -0.49968 0 1 711.629 784.083)" fill="#0C0C0D"/>
<defs>
<filter id="filter0_ii_1238_8918" x="180.817" y="266.632" width="719.387" height="441.384" filterUnits="userSpaceOnUse" color-interpolation-filters="sRGB">
<feFlood flood-opacity="0" result="BackgroundImageFix"/>
<feBlend mode="normal" in="SourceGraphic" in2="BackgroundImageFix" result="shape"/>
<feColorMatrix in="SourceAlpha" type="matrix" values="0 0 0 0 0 0 0 0 0 0 0 0 0 0 0 0 0 0 127 0" result="hardAlpha"/>
<feOffset dy="-26.4"/>
<feGaussianBlur stdDeviation="26.4"/>
<feComposite in2="hardAlpha" operator="arithmetic" k2="-1" k3="1"/>
<feColorMatrix type="matrix" values="0 0 0 0 1 0 0 0 0 1 0 0 0 0 1 0 0 0 0.12 0"/>
<feBlend mode="normal" in2="shape" result="effect1_innerShadow_1238_8918"/>
<feColorMatrix in="SourceAlpha" type="matrix" values="0 0 0 0 0 0 0 0 0 0 0 0 0 0 0 0 0 0 127 0" result="hardAlpha"/>
<feOffset dy="-8.8"/>
<feGaussianBlur stdDeviation="8.8"/>
<feComposite in2="hardAlpha" operator="arithmetic" k2="-1" k3="1"/>
<feColorMatrix type="matrix" values="0 0 0 0 1 0 0 0 0 1 0 0 0 0 1 0 0 0 0.12 0"/>
<feBlend mode="normal" in2="effect1_innerShadow_1238_8918" result="effect2_innerShadow_1238_8918"/>
</filter>
<linearGradient id="paint0_linear_1238_8918" x1="519.263" y1="514.24" x2="519.263" y2="740.969" gradientUnits="userSpaceOnUse">
<stop stop-color="#242526"/>
<stop offset="1" stop-color="#0B0C0D"/>
</linearGradient>
<linearGradient id="paint1_linear_1238_8918" x1="540.511" y1="293.032" x2="540.511" y2="708.017" gradientUnits="userSpaceOnUse">
<stop stop-color="#303133"/>
<stop offset="1" stop-color="#0B0C0D"/>
</linearGradient>
<radialGradient id="paint2_radial_1238_8918" cx="0" cy="0" r="1" gradientUnits="userSpaceOnUse" gradientTransform="translate(540.512 293.475) rotate(90) scale(531.392 758.464)">
<stop offset="0.208662" stop-color="white" stop-opacity="0.1"/>
<stop offset="1" stop-opacity="0.2"/>
</radialGradient>
<radialGradient id="paint3_radial_1238_8918" cx="0" cy="0" r="1" gradientUnits="userSpaceOnUse" gradientTransform="translate(540.511 293.032) rotate(90) scale(515.173 2006.19)">
<stop stop-opacity="0"/>
<stop offset="1" stop-color="white"/>
</radialGradient>
</defs>
</svg>
