<svg width="1000" height="1000" viewBox="0 0 1000 1000" fill="none" xmlns="http://www.w3.org/2000/svg">
<g clip-path="url(#clip0_702_11304)">
<path d="M997.73 447.185H635.911V354.576H997.73V447.185Z" fill="#E669A2"/>
<path d="M950.734 447.185H635.911V215.561H950.734V447.185Z" fill="#F3BE26"/>
<path d="M820.666 447.185H635.911V123H820.666V447.185Z" fill="#EE9C34"/>
<path d="M857.014 447.185H635.911V159.174H857.014V447.185Z" fill="#F3BC87"/>
<path d="M635.86 159.229V447.156H820.646V159.229H635.86Z" fill="#E3721C"/>
<path d="M450.645 447.186H635.911V493.495H450.645V447.186Z" fill="#AD1B02"/>
<path d="M635.86 215.51V447.156H857.12V215.51H635.86Z" fill="#E88D14"/>
<path d="M635.86 215.51V447.156H820.646V215.51H635.86Z" fill="#D85604"/>
<path d="M751.448 447.185H635.911V308.16H751.448V447.185Z" fill="#C14303"/>
<path d="M635.86 354.643V447.156H950.841V354.643H635.86Z" fill="#DB4E18"/>
<path d="M635.86 354.643V447.156H857.12V354.643H635.86Z" fill="#D1390D"/>
<path d="M635.86 354.643V447.156H820.646V354.643H635.86Z" fill="#C22303"/>
<path d="M635.86 354.643V447.156H751.563V354.643H635.86Z" fill="#AD1B02"/>
<path d="M676.194 621.605C644.671 627.209 627.858 651.027 627.858 692.357C627.858 734.388 650.275 762.409 683.199 762.409C699.311 762.409 713.321 756.804 742.743 742.094C742.743 776.419 742.743 776.419 742.743 776.419C707.017 793.231 686.001 797.434 657.981 797.434C626.457 797.434 604.041 789.729 586.528 770.815C568.315 752.601 558.508 728.784 558.508 701.464C558.508 641.92 603.34 600.59 668.488 600.59C711.22 600.59 741.342 620.905 741.342 649.626C741.342 668.54 727.331 681.849 707.017 681.849C696.509 681.849 688.103 678.347 676.194 672.042" fill="black"/>
<path d="M518.578 701.464C547.299 665.738 557.807 651.027 557.807 633.514C557.807 616.001 543.797 600.59 524.182 600.59C512.974 600.59 502.466 606.894 497.563 612.499C497.563 686.053 497.563 686.053 497.563 686.053C450.628 749.099 450.628 749.099 450.628 749.099C450.628 606.194 450.628 606.194 450.628 606.194C405.795 606.194 405.795 606.194 405.795 606.194C331.541 728.784 331.541 728.784 331.541 728.784C331.541 606.194 331.541 606.194 331.541 606.194C306.322 606.194 306.322 606.194 306.322 606.194C238.373 621.605 238.373 621.605 238.373 621.605C238.373 639.118 238.373 639.118 238.373 639.118C275.5 642.621 275.5 642.621 275.5 642.621C275.5 794.632 275.5 794.632 275.5 794.632C322.434 794.632 322.434 794.632 322.434 794.632C393.887 676.946 393.887 676.946 393.887 676.946C393.887 794.632 393.887 794.632 393.887 794.632C446.425 794.632 446.425 794.632 446.425 794.632" fill="black"/>
<path d="M96.1684 770.816C101.772 770.816 103.174 770.816 106.676 770.816C144.504 770.816 165.519 747.699 165.519 701.465C165.519 662.937 148.707 641.921 117.184 641.921C112.981 641.921 106.676 642.622 96.1684 644.724V770.816ZM96.1684 853.477C126.991 860.482 126.991 860.482 126.991 860.482C126.991 877.995 126.991 877.995 126.991 877.995C5.80205 877.995 5.80206 877.995 5.80206 877.995C5.80206 860.482 5.80206 860.482 5.80206 860.482C33.8226 853.477 33.8226 853.477 33.8226 853.477C33.8226 641.921 33.8226 641.921 33.8226 641.921C3 641.921 3 641.921 3 641.921C3 624.409 3 624.409 3 624.409C76.554 601.992 76.554 601.992 76.554 601.992C96.1684 601.992 96.1684 601.992 96.1684 601.992C96.1684 627.211 96.1684 627.211 96.1684 627.211C130.494 606.195 142.402 602.693 160.616 602.693C201.245 602.693 232.068 640.52 232.068 693.059C232.068 753.303 190.738 794.634 127.691 794.634C120.686 794.634 108.778 793.933 96.1684 793.232" fill="black"/>
</g>
<defs>
<clipPath id="clip0_702_11304">
<rect width="994.73" height="754.995" fill="white" transform="translate(3 123)"/>
</clipPath>
</defs>
</svg>
